<svg xmlns="http://www.w3.org/2000/svg" viewBox="0 0 64 64" role="img" aria-label="Electronics Toolkit icon">
  <defs>
    <linearGradient id="backgroundGradient" x1="0" y1="0" x2="64" y2="64" gradientUnits="userSpaceOnUse">
      <stop offset="0%" stop-color="#B8F7B2"/>
      <stop offset="100%" stop-color="#9EDCFF"/>
    </linearGradient>
  </defs>
  <rect width="64" height="64" rx="12" fill="url(#backgroundGradient)"/>
  <g fill="#000000">
    <path d="M53.6,26.8h-2.2c-0.2,0-0.3-0.2-0.4-0.3c-0.4-1.4-1-2.8-1.7-4.1c-0.1-0.1-0.1-0.3,0-0.4l1.6-1.6c0.5-0.5,0.7-1,0.7-1.7   S51.4,17.5,51,17l-4-4c-0.9-0.9-2.5-0.9-3.4,0L42,14.6c-0.1,0.1-0.3,0.1-0.4,0c-1.3-0.7-2.7-1.3-4.1-1.7c-0.2,0-0.3-0.2-0.3-0.4   v-2.2c0-1.3-1.1-2.4-2.4-2.4h-5.6c-1.3,0-2.4,1.1-2.4,2.4v2.2c0,0.2-0.2,0.3-0.3,0.4c-1.4,0.4-2.8,1-4.1,1.7   c-0.1,0.1-0.3,0.1-0.4,0L20.4,13c-0.9-0.9-2.5-0.9-3.4,0l-4,4c-0.5,0.5-0.7,1-0.7,1.7s0.2,1.2,0.7,1.7l1.6,1.6   c0.1,0.1,0.1,0.3,0,0.4c-0.7,1.3-1.3,2.7-1.7,4.1c0,0.2-0.2,0.3-0.4,0.3h-2.2c-1.3,0-2.4,1.1-2.4,2.4v5.6c0,1.3,1.1,2.4,2.4,2.4   h2.2c0.2,0,0.3,0.2,0.4,0.3c0.4,1.4,1,2.8,1.7,4.1c0.1,0.1,0.1,0.3,0,0.4L13,43.6c-0.5,0.5-0.7,1-0.7,1.7s0.2,1.2,0.7,1.7l4,4   c0.9,0.9,2.5,0.9,3.4,0l1.6-1.6c0.1-0.1,0.3-0.1,0.4,0c1.3,0.7,2.7,1.3,4.1,1.7c0.2,0,0.3,0.2,0.3,0.4v2.2c0,1.3,1.1,2.4,2.4,2.4   h5.6c1.3,0,2.4-1.1,2.4-2.4v-2.2c0-0.2,0.2-0.3,0.4-0.4c0.3-0.1,1.1-0.4,1.4-0.5c0.4-0.1,0.6-0.4,0.7-0.7s0-0.7-0.3-1l-4.7-4.7   c-0.2-0.2-0.6-0.3-0.9-0.3C33.3,44,32.6,44,32,44c-6.6,0-12-5.4-12-12s5.4-12,12-12s12,5.4,12,12c0,0.2,0,0.4,0,0.6   c0,0.3,0,0.5,0,0.8c0,0.3,0.1,0.6,0.3,0.9l4.8,4.6c0.2,0.2,0.6,0.3,0.9,0.2c0.3-0.1,0.6-0.3,0.7-0.7l0.3-1c0,0,0,0,0,0   c0-0.2,0.2-0.3,0.4-0.3h2.2c1.3,0,2.4-1.1,2.4-2.4v-5.6C56,27.9,54.9,26.8,53.6,26.8z M54,34.8c0,0.2-0.2,0.4-0.4,0.4h-2.2   c-0.9,0-1.6,0.5-2.1,1.2L46,33.2c0-0.3,0-0.5,0-0.7c0-0.1,0-0.3,0-0.5c0-7.7-6.3-14-14-14s-14,6.3-14,14s6.3,14,14,14   c0.6,0,1.1,0,1.7-0.1l3.2,3.2c-1,0.3-1.7,1.2-1.7,2.3v2.2c0,0.2-0.2,0.4-0.4,0.4h-5.6c-0.2,0-0.4-0.2-0.4-0.4v-2.2   c0-1.1-0.7-2-1.8-2.3c-1.3-0.4-2.5-0.9-3.7-1.5c-0.4-0.2-0.8-0.3-1.2-0.3c-0.6,0-1.2,0.2-1.6,0.7L19,49.5c-0.2,0.2-0.3,0.2-0.5,0   l-4-4c-0.1-0.1-0.1-0.2-0.1-0.3c0-0.1,0-0.2,0.1-0.3l1.6-1.6c0.7-0.7,0.9-1.9,0.4-2.8c-0.6-1.2-1.2-2.4-1.5-3.7   c-0.3-1-1.2-1.8-2.3-1.8h-2.2c-0.2,0-0.4-0.2-0.4-0.4v-5.6c0-0.2,0.2-0.4,0.4-0.4h2.2c1.1,0,2-0.7,2.3-1.8c0.4-1.3,0.9-2.5,1.5-3.7   c0.5-0.9,0.4-2.1-0.4-2.8L14.5,19c-0.1-0.1-0.1-0.2-0.1-0.3c0-0.1,0-0.2,0.1-0.3l4-4c0.2-0.2,0.3-0.2,0.5,0l1.6,1.6   c0.7,0.7,1.9,0.9,2.8,0.4c1.2-0.6,2.4-1.2,3.7-1.5c1-0.3,1.8-1.2,1.8-2.3v-2.2c0-0.2,0.2-0.4,0.4-0.4h5.6c0.2,0,0.4,0.2,0.4,0.4   v2.2c0,1.1,0.7,2,1.8,2.3c1.3,0.4,2.5,0.9,3.7,1.5c0.9,0.5,2.1,0.4,2.8-0.4l1.6-1.6c0.2-0.2,0.3-0.2,0.5,0l4,4   c0.1,0.1,0.1,0.2,0.1,0.3c0,0.1,0,0.2-0.1,0.3L48,20.5c-0.7,0.7-0.9,1.9-0.4,2.8c0.6,1.2,1.2,2.4,1.5,3.7c0.3,1,1.2,1.8,2.3,1.8   h2.2c0.2,0,0.4,0.2,0.4,0.4V34.8z"/>
    <path d="M41.6,34.2c0.9-3.5,0-7.1-2.6-9.7c-2.7-2.7-6.6-3.6-10.3-2.4c-0.3,0.1-0.6,0.4-0.7,0.7s0,0.7,0.3,0.9l2.9,2.9l1.4-1.4   l-1.6-1.6c2.4-0.3,4.8,0.5,6.5,2.3c2.2,2.2,2.9,5.3,1.9,8.2c-0.1,0.4,0,0.8,0.2,1l12,12c1.2,1.2,1.2,3.1,0,4.2   c-1.2,1.2-3.1,1.2-4.2,0l-12-12c-0.3-0.3-0.7-0.4-1-0.2c-2.9,1-6,0.2-8.2-1.9c-1.7-1.7-2.6-4.1-2.3-6.5l4.4,4.4   c0.2,0.2,0.4,0.3,0.7,0.3s0.5-0.1,0.7-0.3l5.7-5.7l-1.4-1.4l-5,5l-5-5c-0.2-0.2-0.6-0.3-0.9-0.3c-0.3,0.1-0.6,0.3-0.7,0.7   c-1.2,3.6-0.3,7.6,2.4,10.3c2.5,2.5,6.2,3.5,9.7,2.6l11.6,11.6c1,1,2.3,1.5,3.5,1.5s2.6-0.5,3.5-1.5c1.9-1.9,1.9-5.1,0-7.1   L41.6,34.2z"/>
  </g>
</svg>
